# xmcd CD database file
#
# Track frame offsets:
#	192
#	10950
#	24592
#	42190
#	57627
#	89835
#	110077
#	132305
#	146802
#	161180
#	180792
#	196407
#	211612
#
# Disc length: 3005 seconds
#
# Revision: 0
# Processed by: cddbd v1.5.2PL0 Copyright (c) Steve Scherf et al.
# Submitted via: CDex 1.51
#
DISCID=bc0bbb0d
DTITLE=Various Artist - Saturday Night At The Pleasure Spot
DYEAR=1993
DGENRE=Blues
TTITLE0=Big H Williams-You Are My Sunshine
TTITLE1=Big H Williams-Come Back Baby
TTITLE2=Lowell Fulson-Going To Chicago
TTITLE3=Lowell Fulson-Reconsider Baby
TTITLE4=Jimmy Reed and Johnny Winter-Stop Light
TTITLE5=T Bone Walker-My Old Time Used To Be
TTITLE6=Pete Mayes-Things That I Used To Do
TTITLE7=Johnny Copeland-Down On Bended Knees
TTITLE8=Mabel Franklin-The Wiggle
TTITLE9=Big Walter and Albert Collins-Nobody Loves Me
TTITLE10=Big Walter and Albert Collins-If Blues Was Money
TTITLE11=Juke Boy Bonner-Blues Blues Blues
TTITLE12=Juke Boy Bonner-I Wonder If You Know How It Is
EXTD=YEAR: 1993
EXTT0=
EXTT1=
EXTT2=
EXTT3=
EXTT4=
EXTT5=
EXTT6=
EXTT7=
EXTT8=
EXTT9=
EXTT10=
EXTT11=
EXTT12=
PLAYORDER=
